<svg width="26" height="22" viewBox="0 0 26 22" fill="none" xmlns="http://www.w3.org/2000/svg">
<path d="M13.1536 15.8326C10.3192 15.8326 8.01843 13.5319 8.01843 10.6974C8.01843 7.86301 10.3192 5.56226 13.1536 5.56226C15.988 5.56226 18.2888 7.86301 18.2888 10.6974C18.2888 13.5319 15.988 15.8326 13.1536 15.8326ZM13.1536 7.34119C11.3035 7.34119 9.79737 8.84733 9.79737 10.6974C9.79737 12.5475 11.3035 14.0537 13.1536 14.0537C15.0037 14.0537 16.5099 12.5475 16.5099 10.6974C16.5099 8.84733 15.0037 7.34119 13.1536 7.34119Z" fill="#BFACE2"/>
<path d="M13.1539 21.3947C8.69467 21.3947 4.48452 18.7856 1.59079 14.2552C0.333671 12.2984 0.333671 9.10817 1.59079 7.13946C4.49638 2.60911 8.70653 0 13.1539 0C17.6012 0 21.8114 2.60911 24.7051 7.13946C25.9622 9.09631 25.9622 12.2865 24.7051 14.2552C21.8114 18.7856 17.6012 21.3947 13.1539 21.3947ZM13.1539 1.77894C9.32323 1.77894 5.65862 4.07969 3.09695 8.10009C2.20748 9.48768 2.20748 11.907 3.09695 13.2946C5.65862 17.315 9.32323 19.6158 13.1539 19.6158C16.9845 19.6158 20.6491 17.315 23.2108 13.2946C24.1003 11.907 24.1003 9.48768 23.2108 8.10009C20.6491 4.07969 16.9845 1.77894 13.1539 1.77894Z" fill="#BFACE2"/>
</svg>
