<svg width="22" height="19" viewBox="0 0 22 19" fill="none" xmlns="http://www.w3.org/2000/svg">
<path d="M11.2309 19C10.9257 19 10.6303 18.9606 10.3842 18.872C6.6236 17.5824 0.647949 13.0047 0.647949 6.24145C0.647949 2.79585 3.43396 0 6.85987 0C8.5236 0 10.079 0.649741 11.2309 1.8114C12.3827 0.649741 13.9381 0 15.6018 0C19.0277 0 21.8138 2.8057 21.8138 6.24145C21.8138 13.0145 15.8381 17.5824 12.0775 18.872C11.8314 18.9606 11.536 19 11.2309 19ZM6.85987 1.47668C4.25106 1.47668 2.12463 3.61295 2.12463 6.24145C2.12463 12.9653 8.59251 16.7062 10.8666 17.4839C11.0438 17.543 11.4277 17.543 11.6049 17.4839C13.8692 16.7062 20.3469 12.9751 20.3469 6.24145C20.3469 3.61295 18.2205 1.47668 15.6117 1.47668C14.1153 1.47668 12.7272 2.17565 11.8314 3.38653C11.5557 3.76062 10.9257 3.76062 10.65 3.38653C9.73448 2.1658 8.35624 1.47668 6.85987 1.47668Z" fill="#BFACE2"/>
</svg>
