<svg width="22" height="19" viewBox="0 0 22 19" fill="none" xmlns="http://www.w3.org/2000/svg">
<path d="M10.9069 19C10.6017 19 10.3064 18.9606 10.0602 18.872C6.29962 17.5824 0.323975 13.0047 0.323975 6.24145C0.323975 2.79585 3.10998 0 6.53589 0C8.19962 0 9.75506 0.649741 10.9069 1.8114C12.0587 0.649741 13.6141 0 15.2779 0C18.7038 0 21.4898 2.8057 21.4898 6.24145C21.4898 13.0145 15.5141 17.5824 11.7535 18.872C11.5074 18.9606 11.2121 19 10.9069 19ZM6.53589 1.47668C3.92708 1.47668 1.80066 3.61295 1.80066 6.24145C1.80066 12.9653 8.26853 16.7062 10.5426 17.4839C10.7198 17.543 11.1038 17.543 11.281 17.4839C13.5452 16.7062 20.0229 12.9751 20.0229 6.24145C20.0229 3.61295 17.8965 1.47668 15.2877 1.47668C13.7913 1.47668 12.4032 2.17565 11.5074 3.38653C11.2317 3.76062 10.6017 3.76062 10.326 3.38653C9.4105 2.1658 8.03226 1.47668 6.53589 1.47668Z" fill="#BFACE2"/>
</svg>
