<svg width="22" height="19" viewBox="0 0 22 19" fill="none" xmlns="http://www.w3.org/2000/svg">
<path d="M10.5829 19C10.2777 19 9.98238 18.9606 9.73627 18.872C5.97565 17.5824 0 13.0047 0 6.24145C0 2.79585 2.78601 0 6.21192 0C7.87565 0 9.43109 0.649741 10.5829 1.8114C11.7347 0.649741 13.2902 0 14.9539 0C18.3798 0 21.1658 2.8057 21.1658 6.24145C21.1658 13.0145 15.1902 17.5824 11.4295 18.872C11.1834 18.9606 10.8881 19 10.5829 19ZM6.21192 1.47668C3.60311 1.47668 1.47668 3.61295 1.47668 6.24145C1.47668 12.9653 7.94456 16.7062 10.2187 17.4839C10.3959 17.543 10.7798 17.543 10.957 17.4839C13.2212 16.7062 19.699 12.9751 19.699 6.24145C19.699 3.61295 17.5725 1.47668 14.9637 1.47668C13.4674 1.47668 12.0793 2.17565 11.1834 3.38653C10.9078 3.76062 10.2777 3.76062 10.0021 3.38653C9.08653 2.1658 7.70829 1.47668 6.21192 1.47668Z" fill="#BFACE2"/>
</svg>
